<svg width="25" height="25" viewBox="0 0 25 25" fill="none" xmlns="http://www.w3.org/2000/svg">
<path d="M22.9167 13.5417L4.59792 13.5417L10.1115 19.0553C10.2109 19.1514 10.2903 19.2663 10.3449 19.3934C10.3995 19.5205 10.4282 19.6572 10.4294 19.7955C10.4306 19.9338 10.4043 20.071 10.3519 20.199C10.2995 20.327 10.2222 20.4433 10.1244 20.5411C10.0266 20.6389 9.91026 20.7162 9.78224 20.7686C9.65423 20.821 9.51706 20.8474 9.37875 20.8462C9.24044 20.845 9.10375 20.8162 8.97666 20.7616C8.84957 20.707 8.73463 20.6277 8.63854 20.5282L1.34688 13.2365C1.15159 13.0412 1.04189 12.7763 1.04189 12.5001C1.04189 12.2238 1.15159 11.9589 1.34688 11.7636L8.63854 4.47193C8.835 4.28218 9.09813 4.17719 9.37125 4.17956C9.64437 4.18194 9.90563 4.29149 10.0988 4.48462C10.2919 4.67776 10.4015 4.93902 10.4038 5.21214C10.4062 5.48526 10.3012 5.74839 10.1115 5.94485L4.59792 11.4584L22.9167 11.4584C23.1929 11.4584 23.4579 11.5681 23.6532 11.7635C23.8486 11.9588 23.9583 12.2238 23.9583 12.5001C23.9583 12.7763 23.8486 13.0413 23.6532 13.2366C23.4579 13.432 23.1929 13.5417 22.9167 13.5417Z" fill="#003B60"/>
</svg>
