<svg width="24" height="24" viewBox="0 0 24 24" fill="none" xmlns="http://www.w3.org/2000/svg">
<path d="M16.7071 9.70711C17.0976 9.31659 17.0976 8.6834 16.7071 8.29289C16.3166 7.90237 15.6834 7.90237 15.2929 8.29289L11 12.5858L9.20711 10.7929C8.81659 10.4024 8.1834 10.4024 7.79289 10.7929C7.40237 11.1834 7.40237 11.8166 7.79289 12.2071L10.2929 14.7071C10.6834 15.0976 11.3166 15.0976 11.7071 14.7071L16.7071 9.70711Z" fill="#012A4A"/>
<path fill-rule="evenodd" clip-rule="evenodd" d="M0 12C0 21.882 2.118 24 12 24C21.882 24 24 21.882 24 12C24 2.118 21.882 0 12 0C2.118 0 0 2.118 0 12ZM2.00002 12C2.00002 14.4249 2.13258 16.2369 2.43773 17.6101C2.73787 18.9605 3.1777 19.7608 3.70847 20.2915C4.23923 20.8223 5.03948 21.2622 6.38995 21.5623C7.76311 21.8675 9.57516 22 12 22C14.4249 22 16.2369 21.8675 17.6101 21.5623C18.9605 21.2622 19.7608 20.8223 20.2915 20.2915C20.8223 19.7608 21.2622 18.9605 21.5623 17.6101C21.8675 16.2369 22 14.4249 22 12C22 9.57516 21.8675 7.76306 21.5623 6.38995C21.2622 5.03953 20.8223 4.23928 20.2915 3.70847C19.7608 3.1777 18.9605 2.73783 17.6101 2.43773C16.2369 2.13258 14.4249 2.00002 12 2.00002C9.57516 2.00002 7.76306 2.13258 6.38995 2.43773C5.03953 2.73787 4.23928 3.1777 3.70847 3.70847C3.17766 4.23923 2.73783 5.03948 2.43773 6.38995C2.13253 7.76306 2.00002 9.57516 2.00002 12Z" fill="#012A4A"/>
</svg>
