<svg width="92" height="92" viewBox="0 0 92 92" fill="none" xmlns="http://www.w3.org/2000/svg">
<path fill-rule="evenodd" clip-rule="evenodd" d="M68.1219 46.3114L36.4766 64.5826C36.4219 64.6141 36.36 64.6307 36.2969 64.6307C36.2338 64.6307 36.1718 64.6141 36.1172 64.5826C36.0626 64.551 36.0172 64.5057 35.9857 64.451C35.9541 64.3964 35.9375 64.3344 35.9375 64.2713V27.7292C35.9334 27.6654 35.9482 27.6018 35.9802 27.5464C36.0122 27.4911 36.0598 27.4464 36.1172 27.4182C36.1704 27.3826 36.2329 27.3637 36.2969 27.3637C36.3608 27.3637 36.4234 27.3826 36.4766 27.4182L68.1219 45.6891C68.1765 45.7207 68.2218 45.7661 68.2533 45.8207C68.2848 45.8753 68.3014 45.9372 68.3014 46.0003C68.3014 46.0633 68.2848 46.1253 68.2533 46.1799C68.2218 46.2345 68.1765 46.2798 68.1219 46.3114ZM69.5594 43.1994L37.9141 24.9291C37.4224 24.6453 36.8648 24.4958 36.2971 24.4958C35.7295 24.4958 35.1718 24.6451 34.6801 24.9289C34.1885 25.2126 33.7801 25.6208 33.4962 26.1124C33.2122 26.6039 33.0627 27.1615 33.0625 27.7292V64.2713C33.0601 64.84 33.2081 65.3992 33.4915 65.8922C33.7748 66.3852 34.1834 66.7946 34.6759 67.0789C35.1685 67.3631 35.7274 67.5121 36.296 67.5108C36.8647 67.5095 37.4229 67.3579 37.9141 67.0714L69.5594 48.8011C70.051 48.5172 70.4592 48.109 70.743 47.6173C71.0268 47.1257 71.1763 46.568 71.1763 46.0003C71.1763 45.4326 71.0268 44.8749 70.743 44.3832C70.4592 43.8916 70.051 43.4833 69.5594 43.1994ZM46 0C20.6355 0 0 20.6362 0 46C0 71.3638 20.6355 92.0014 46 92.0014C71.3645 92.0014 92 71.3652 92 46C92 20.6348 71.3652 0 46 0Z" fill="#F0E615"/>
</svg>
