<svg width="97" height="97" viewBox="0 0 97 97" fill="none" xmlns="http://www.w3.org/2000/svg">
<path d="M19.0777 85.6188C17.5182 84.4123 16.0289 83.1028 14.617 81.6948C10.2918 77.3845 6.89572 72.3643 4.52379 66.7741C2.06622 60.9836 0.819588 54.8363 0.819588 48.4995C0.819588 42.1626 2.06503 36.0153 4.5226 30.2248C6.89572 24.6346 10.2918 19.6144 14.6158 15.3041C16.2217 13.7041 17.9251 12.2322 19.7189 10.8918" stroke="#F0E615" stroke-width="2.79" stroke-miterlimit="10" stroke-linecap="round" stroke-linejoin="round"/>
<path d="M47.9251 1.55542C73.9401 1.55542 95.0305 22.5736 95.0305 48.4995C95.0305 74.4253 73.9401 95.4435 47.9251 95.4435" stroke="#F0E615" stroke-width="3" stroke-miterlimit="10" stroke-linecap="round" stroke-linejoin="round"/>
<path d="M22.1408 12.1445C23.8016 12.1445 25.1479 10.8031 25.1479 9.14846C25.1479 7.49382 23.8016 6.15247 22.1408 6.15247C20.48 6.15247 19.1336 7.49382 19.1336 9.14846C19.1336 10.8031 20.48 12.1445 22.1408 12.1445Z" stroke="#F0E615" stroke-width="5" stroke-miterlimit="10" stroke-linecap="round" stroke-linejoin="round"/>
<path d="M22.1408 90.8475C23.8016 90.8475 25.1479 89.5061 25.1479 87.8515C25.1479 86.1968 23.8016 84.8555 22.1408 84.8555C20.48 84.8555 19.1336 86.1968 19.1336 87.8515C19.1336 89.5061 20.48 90.8475 22.1408 90.8475Z" stroke="#F0E615" stroke-width="5" stroke-miterlimit="10" stroke-linecap="round" stroke-linejoin="round"/>
</svg>
