<svg width="10" height="12" viewBox="0 0 10 12" fill="none" xmlns="http://www.w3.org/2000/svg">
<path id="&#224;&#167;&#179;" d="M9.408 4.016V5.168H3.872V9.584C3.872 10.0853 3.936 10.4267 4.064 10.608C4.20267 10.7893 4.46933 10.88 4.864 10.88C5.184 10.88 5.504 10.8107 5.824 10.672C6.15467 10.5333 6.448 10.3467 6.704 10.112C6.97067 9.87733 7.184 9.61067 7.344 9.312C7.504 9.00267 7.584 8.688 7.584 8.368C7.584 8.112 7.50933 7.91467 7.36 7.776C7.22133 7.63733 6.992 7.568 6.672 7.568C6.384 7.568 6.11733 7.6 5.872 7.664L5.712 6.576C5.89333 6.52267 6.08533 6.48533 6.288 6.464C6.50133 6.432 6.71467 6.416 6.928 6.416C7.49333 6.416 7.952 6.56 8.304 6.848C8.66667 7.12533 8.848 7.57867 8.848 8.208C8.848 8.69867 8.73067 9.17333 8.496 9.632C8.272 10.08 7.968 10.4853 7.584 10.848C7.2 11.2 6.768 11.4773 6.288 11.68C5.808 11.8827 5.31733 11.984 4.816 11.984C4.42133 11.984 4.096 11.9413 3.84 11.856C3.584 11.76 3.37067 11.632 3.2 11.472C3.09333 11.3653 2.99733 11.248 2.912 11.12C2.82667 10.9813 2.75733 10.8 2.704 10.576C2.66133 10.3413 2.64 10.032 2.64 9.648V5.168H1.088V4.016H9.408ZM1.888 0C2.19733 0 2.464 0.0426664 2.688 0.127999C2.92267 0.213333 3.12 0.341333 3.28 0.512C3.472 0.714667 3.616 0.992 3.712 1.344C3.81867 1.68533 3.872 2.17067 3.872 2.8V4.144H2.64V2.864C2.64 2.49067 2.61333 2.18133 2.56 1.936C2.51733 1.68 2.416 1.488 2.256 1.36C2.096 1.22133 1.856 1.152 1.536 1.152C1.33333 1.152 1.13067 1.184 0.928 1.248C0.736 1.30133 0.570667 1.35467 0.432 1.408L0 0.415999C0.32 0.277333 0.629333 0.175999 0.928 0.112C1.23733 0.0373332 1.55733 0 1.888 0Z" fill="white"/>
</svg>
